# xmcd
#
# Track frame offsets: 
#        150
#        34366
#        64798
#        83269
#        102676
#        122007
#        137969
#        172528
#        180409
#        200584
#
# Disc length: 2915 seconds
#
# Revision: 0
# Processed by: cddbd v1.5.2PL0 Copyright (c) Steve Scherf et al.
# Submitted via: ExactAudioCopy v1.0b3
#
DISCID=810b610a
DTITLE=Otis Taylor - Hey Joe Opus Red Meat
DYEAR=2015
DGENRE=Blues
TTITLE0=Hey Joe (A)
TTITLE1=Sunday Morning (A)
TTITLE2=Heart Is a Muscle Used to Play the Blues
TTITLE3=Red Meat
TTITLE4=Peggy Lee
TTITLE5=They Wore Blue
TTITLE6=Hey Joe (B)
TTITLE7=Sunday Morning (B)
TTITLE8=Cold at Midnight
TTITLE9=Sunday Morning (C)
EXTD=
EXTT0=
EXTT1=
EXTT2=
EXTT3=
EXTT4=
EXTT5=
EXTT6=
EXTT7=
EXTT8=
EXTT9=
PLAYORDER=
